<svg version="1.1" xmlns="http://www.w3.org/2000/svg" xmlns:xlink="http://www.w3.org/1999/xlink" width="134.34795" height="127.02132"><g transform="translate(-177.72755,-92.68196)"><g data-paper-data="{&quot;isPaintingLayer&quot;:true}" fill="none" fill-rule="none" stroke="none" stroke-width="none" stroke-linecap="none" stroke-linejoin="none" stroke-miterlimit="10" stroke-dasharray="" stroke-dashoffset="0" font-family="none" font-weight="none" font-size="none" text-anchor="none" style="mix-blend-mode: normal"><path d="M177.97755,219.45327v-126.52132h133.84795v126.52132z" data-paper-data="{&quot;origPos&quot;:null}" fill="#ffffff" fill-rule="nonzero" stroke="#000000" stroke-width="0.5" stroke-linecap="butt" stroke-linejoin="miter"/><g id="head" fill-rule="evenodd"><path d="M253.7,131c0.3,-0.2 0.8,-0.1 0.9,0.3l2.6,10.7c0,0 6.4,4.7 8.3,8c3.2,5.5 3.3,10 3.3,10c0,0 7.1,2.1 8.3,7.8c1.2,5.7 -3.2,16.5 -22,20.2c-18.8,3.7 -33.9,-1.4 -41,-12.8c-7.1,-11.4 4.1,-25 3.5,-24.2l-2.1,-17.9c-0.1,-0.4 0.4,-0.7 0.8,-0.5l12.1,7.9c0,0 4.5,-1.7 9.2,-1.9c2.8,-0.2 5.2,0 7.5,0.4z" fill="#ffab19" stroke="#001026" stroke-width="1.2" stroke-linecap="butt" stroke-linejoin="miter"/><path d="M268.5,160.4c0,0 6.9,1.8 8.1,7.5c1.2,5.7 -3.6,16 -22.2,19.6c-24.2,5 -35.7,-9.4 -29,-20c6.7,-10.7 18.2,-1.6 26.6,-2.2c7.2,-0.5 8,-6.8 16.5,-4.9z" id="face" fill="#ffffff" stroke="none" stroke-width="1" stroke-linecap="butt" stroke-linejoin="miter"/><path d="M237,171.1c0,-0.4 0.4,-0.7 0.8,-0.6c1.9,0.7 7.3,2.3 13.3,2.7c5.4,0.3 8.6,0 10.1,-0.3c0.5,-0.1 0.9,0.4 0.7,0.9c-0.9,2.7 -4.7,10.2 -15.2,9.6c-9.1,-1 -10,-7.4 -9.7,-12.3z" id="mouth" fill="#ffffff" stroke="#001026" stroke-width="1.2" stroke-linecap="round" stroke-linejoin="round"/><path d="M286.9,161.5c-4.7,3.8 -11.9,3.9 -11.9,3.9" id="whisker" fill="none" stroke="#001026" stroke-width="1.2" stroke-linecap="round" stroke-linejoin="round"/><path d="M285.6,172.7c-6.3,0.5 -10.2,-1.4 -10.2,-1.4" id="whisker" fill="none" stroke="#001026" stroke-width="1.2" stroke-linecap="round" stroke-linejoin="round"/><path d="M251.6,162.7c2.1,0 4.3,0.2 4.4,0.9c0.1,1.4 -1.4,4.2 -3,4.3c-1.8,0.2 -6,-2.3 -6,-3.9c-0.1,-1.2 2.6,-1.3 4.6,-1.3z" id="nose" fill="#001026" stroke="#001026" stroke-width="1.2" stroke-linecap="round" stroke-linejoin="round"/><path d="M206.6,161.2c0,0 8.6,2.8 12.1,5.9" id="whisker" fill="none" stroke="#001026" stroke-width="1.2" stroke-linecap="round" stroke-linejoin="round"/><path d="M219,170.6c-4.3,1.7 -11.7,0.6 -11.7,0.6" id="whisker" fill="none" stroke="#001026" stroke-width="1.2" stroke-linecap="round" stroke-linejoin="round"/><g id="eye"><path d="M263.4,151c2.9,4.5 3,9.6 0.2,11.4c-2.8,1.8 -7.4,-0.3 -10.4,-4.8c-2.9,-4.5 -3,-9.6 -0.2,-11.4c2.8,-1.9 7.5,0.3 10.4,4.8z" id="pupil" fill="#ffffff" stroke="#001026" stroke-width="1.2" stroke-linecap="round" stroke-linejoin="round"/><path d="M263,156.7c0,1.1 -0.8,2 -1.8,2c-1,0 -1.8,-0.9 -1.8,-2c0,-1.1 0.8,-2 1.8,-2c1,0 1.8,0.9 1.8,2" id="pupil" fill="#001026" stroke="none" stroke-width="1" stroke-linecap="butt" stroke-linejoin="miter"/></g><g id="eye"><path d="M238.6,153.8c3,4.4 2.8,9.8 0.1,11.7c-3.3,1.9 -7.7,0.5 -10.7,-3.9c-3.1,-4.4 -3.3,-10.1 -0.2,-12.3c3.1,-2.3 7.8,0.1 10.8,4.5z" fill="#ffffff" stroke="#001026" stroke-width="1.2" stroke-linecap="round" stroke-linejoin="round"/><path d="M238,159.6c0,1.1 -0.8,2 -1.8,2c-1,0 -1.8,-0.9 -1.8,-2c0,-1.1 0.8,-2 1.8,-2c1,0.1 1.8,0.9 1.8,2" id="pupil" fill="#001026" stroke="none" stroke-width="1" stroke-linecap="butt" stroke-linejoin="miter"/></g></g><path d="M210.46396,177.8787h-1.44144c0,0 -0.72197,0 -1.38996,-0.38798c-4.23021,0.02789 -8.42725,-0.06266 -12.49511,-1.52331c-2.29858,-0.82535 -4.04473,-2.53601 -6.03447,-3.8625c-2.39788,-1.59859 -4.62136,-3.00874 -6.20324,-5.49233c-3.75703,-5.89864 -1.78086,-14.11291 1.01981,-19.91787c0.0389,-0.1191 0.08958,-0.24053 0.15372,-0.36388l-0.99161,0.21823c-0.06864,-0.41184 -0.13728,-0.82368 -0.20592,-1.23552c-0.31647,-3.16207 0.40831,-5.04497 2.23914,-7.56351c1.55609,-2.1406 2.56109,-4.18147 4.96385,-5.60947c1.43152,-0.85078 3.87038,-0.32014 5.45483,-0.42655c5.58075,-0.3748 9.14172,0.889 13.44206,4.47262c0.71169,0.98338 1.67515,1.82675 2.13506,2.95015c0.60993,1.48986 0.07408,3.22236 -0.01799,4.8296c-0.2375,4.14585 0.15899,11.40779 -3.80304,14.02952c-4.28247,2.83377 -6.68825,0.75617 -11.03332,-0.33138c-0.67724,-0.16951 -1.36391,-0.32501 -2.06004,-0.37782c-0.16669,-0.01265 -0.38048,0.04054 -0.59239,0.09544c0.0504,0.24833 0.08013,0.49135 -0.03043,0.70012c-0.11891,0.22455 -0.83522,-0.51972 -0.69833,-0.30566c0.73221,1.14499 2.94221,2.34288 4.08653,3.01082c4.6833,2.73364 10.40239,2.93608 15.23807,5.35392c0,0 1.20299,0.60149 1.40305,1.80448c1.76699,2.2645 2.95139,4.20974 2.04827,6.66675c0.12261,0.62515 0.01059,1.39195 -0.76937,2.14862c-0.55485,0.53829 -1.10458,0.73855 -1.5993,0.75837c-0.28054,0.16356 -0.63055,0.28527 -1.06692,0.33981c-0.22569,0.02821 -0.43341,0.03332 -0.62456,0.01931c-0.37565,0 -0.75131,0 -1.12696,0zM209.12955,170.351c0,0 -0.05107,-0.06384 -0.1232,-0.17767c-7.47736,-3.17693 -21.44156,-3.80378 -20.36484,-14.5621c0.96112,-5.76673 9.1772,-2.66412 12.52295,-1.54887c0.76155,0.25385 2.88805,0.98496 3.68138,0.72051c0.35998,-0.11999 -1.07431,0.05656 -1.09172,-0.32249c-0.05155,-1.12212 1.58799,-1.74719 1.79682,-2.85091c0.25022,-1.32249 -0.04776,-2.69677 0.0742,-4.03719c0.23474,-2.57997 1.11506,-5.86079 0.48555,-8.43549c-0.07538,-0.30832 -0.22399,0.59397 -0.33598,0.89095c-2.09227,-1.74356 -4.52343,-3.71525 -7.42691,-3.87316c-0.75057,-0.04082 -1.44403,0.47113 -2.19406,0.52083c-1.34766,0.0893 -3.99696,-0.4061 -5.25301,0.39713c-0.20454,0.1308 0.73972,-0.11642 0.71749,0.12535c-0.25794,2.80553 -5.29033,4.3219 -3.81051,7.29366c0.05187,0.3112 0.10373,0.6224 0.1556,0.93361c1.59062,1.17338 0.64408,3.06646 0.64408,3.06646c-2.29383,4.58767 -4.33892,11.00163 -1.23552,15.88489c1.05978,1.66758 2.9,2.49842 4.5046,3.56815c1.82499,1.21666 3.39618,2.8061 5.49704,3.55062c4.19824,1.48779 8.95887,1.00037 13.34174,0.97277c-0.45676,-0.75028 -1.0089,-1.39603 -1.58571,-2.11704z" fill="#000000" fill-rule="nonzero" stroke="none" stroke-width="0.5" stroke-linecap="butt" stroke-linejoin="miter"/><path d="M210.7436,172.50924c-4.38287,0.0276 -9.1744,0.52377 -13.37265,-0.96403c-2.10086,-0.74451 -3.69073,-2.33863 -5.51572,-3.55529c-1.6046,-1.06973 -3.46036,-1.91196 -4.52014,-3.57954c-3.1034,-4.88326 -1.06424,-11.35707 1.22959,-15.94473c0,0 0.9515,-1.89988 -0.63912,-3.07326c-0.05187,-0.3112 -0.10233,-0.62396 -0.15419,-0.93516c-1.47983,-2.97176 3.57088,-4.50043 3.82882,-7.30596c0.02223,-0.24177 -0.92357,0.00607 -0.71903,-0.12473c1.25605,-0.80323 3.91902,-0.31147 5.26668,-0.40077c0.75003,-0.0497 1.44965,-0.562 2.20022,-0.52117c2.90348,0.15792 5.35761,2.13533 7.44988,3.87889c0.11199,-0.29698 0.2603,-1.19943 0.33568,-0.89111c0.62951,2.5747 -0.23696,5.86609 -0.4717,8.44605c-0.12196,1.34042 0.18603,2.73093 -0.06419,4.05343c-0.20883,1.10372 -1.84517,1.74734 -1.79361,2.86946c0.01742,0.37905 1.35181,0.19837 0.99183,0.31837c-0.79334,0.26445 -2.91968,-0.45838 -3.68123,-0.71223c-3.34575,-1.11525 -11.46251,-4.22939 -12.42363,1.53734c-1.07671,10.75832 12.80979,11.35028 20.28715,14.52721c0.07213,0.11383 0.1232,0.17767 0.1232,0.17767c0.57681,0.72102 1.18541,1.44929 1.64217,2.19958z" data-paper-data="{&quot;noHover&quot;:false,&quot;origItem&quot;:[&quot;Path&quot;,{&quot;applyMatrix&quot;:true,&quot;segments&quot;:[[[209.12955,170.351],[0.57681,0.72102],[0,0]],[[209.00635,170.17333],[0.07213,0.11383],[-7.47736,-3.17693]],[[188.6415,155.61123],[-1.07671,10.75832],[0.96112,-5.76673]],[[201.16445,154.06236],[-3.34575,-1.11525],[0.76155,0.25385]],[[204.84584,154.78288],[-0.79334,0.26445],[0.35998,-0.11999]],[[203.75411,154.46038],[0.01742,0.37905],[-0.05155,-1.12212]],[[205.55093,151.60948],[-0.20883,1.10372],[0.25022,-1.32249]],[[205.62513,147.57229],[-0.12196,1.34042],[0.23474,-2.57997]],[[206.11068,139.1368],[0.62951,2.5747],[-0.07538,-0.30832]],[[205.7747,140.02775],[0.11199,-0.29698],[-2.09227,-1.74356]],[[198.34779,136.15459],[2.90348,0.15792],[-0.75057,-0.04082]],[[196.15373,136.67541],[0.75003,-0.0497],[-1.34766,0.0893]],[[190.90072,137.07254],[1.25605,-0.80323],[-0.20454,0.1308]],[[191.61822,137.1979],[0.02223,-0.24177],[-0.25794,2.80553]],[[187.80771,144.49156],[-1.47983,-2.97176],[0.05187,0.3112]],[[187.96332,145.42516],[-0.05187,-0.3112],[1.59062,1.17338]],[[188.6074,148.49163],[0,0],[-2.29383,4.58767]],[[187.37188,164.37651],[-3.1034,-4.88326],[1.05978,1.66758]],[[191.87648,167.94466],[-1.6046,-1.06973],[1.82499,1.21666]],[[197.37352,171.49528],[-2.10086,-0.74451],[4.19824,1.48779]],[[210.71526,172.46805],[-4.38287,0.0276],[-0.45676,-0.75028]]],&quot;closed&quot;:true}]}" fill="#ffab19" fill-rule="nonzero" stroke="none" stroke-width="0.5" stroke-linecap="butt" stroke-linejoin="miter"/><path d="M287.66738,169.77603l0.84529,-0.9876c-0.12445,-0.74672 -0.24891,-1.49344 -0.37336,-2.24017c-2.67721,0.76837 -5.24928,1.49458 -7.21173,2.4758c0,0 -0.29987,0.14993 -0.73489,0.23018c-0.16954,0.37307 -0.35906,0.73694 -0.58861,1.11723c0.05731,0.068 0.11395,0.12792 0.16928,0.17219l0.75295,0.33809c2.3744,0.02714 4.85142,0.16922 7.28355,0.04417c-0.19695,-0.60514 -0.14248,-1.14989 -0.14248,-1.14989zM293.03279,165.49539c0.01547,0.09283 0.03094,0.18565 0.04641,0.27848l0.19361,-0.16183c0.13639,-0.27277 0.27277,-0.54554 0.40916,-0.81831c-0.2536,0.09522 -0.50955,0.18804 -0.76738,0.27875c0.08911,0.24842 0.11819,0.42292 0.11819,0.42292zM293.8567,169.31251c-0.28765,-0.16437 -0.5154,-0.34508 -0.69407,-0.53491l-0.48622,1.39857c0.28273,-0.08192 0.56326,-0.1718 0.84132,-0.27034c0.29206,-0.1035 0.57389,-0.22333 0.84758,-0.35622c-0.16333,-0.05866 -0.33293,-0.13671 -0.50861,-0.2371zM298.98048,165.37706c-0.25796,0.51592 -0.51592,1.03184 -0.77388,1.54776c0.26543,-0.19553 0.53394,-0.38677 0.80818,-0.5696c1.6046,-1.06973 3.44483,-1.90057 4.5046,-3.56814c3.1034,-4.88325 1.05831,-11.29722 -1.23552,-15.88489c0,0 -0.94654,-1.89308 0.64408,-3.06646c0.05186,-0.3112 0.10373,-0.62241 0.1556,-0.93361c1.47983,-2.97177 -3.55257,-4.48813 -3.81051,-7.29366c-0.02223,-0.24177 0.92204,0.00545 0.7175,-0.12535c-1.25605,-0.80323 -3.90535,-0.30783 -5.253,-0.39713c-0.75004,-0.0497 -1.44349,-0.56166 -2.19407,-0.52083c-2.90348,0.15792 -5.33463,2.12961 -7.42691,3.87317c-0.11199,-0.29699 -0.26059,-1.19928 -0.33598,-0.89095c-0.62951,2.5747 0.25081,5.85553 0.48555,8.4355c0.12196,1.34042 -0.17603,2.71469 0.0742,4.03719c0.20883,1.10371 1.84837,1.72879 1.79682,2.85091c-0.01741,0.37905 -1.4517,0.20249 -1.09172,0.32249c0.79334,0.26444 2.91983,-0.46666 3.68138,-0.72051c3.34575,-1.11525 11.56184,-4.21786 12.52295,1.54887c0.39437,3.94043 -1.22904,6.5217 -3.81244,8.36693c1.44868,1.17729 0.54316,2.98834 0.54316,2.98834zM276.25175,165.52766c0,0 0.79057,-2.37171 3.16228,-1.58114c0.11293,0.03764 0.21869,0.07887 0.31771,0.12326c4.60048,-1.97707 9.84629,-2.33177 14.19784,-4.87177c1.14432,-0.66795 3.35432,-1.86584 4.08653,-3.01083c0.1369,-0.21407 -0.57941,0.53021 -0.69833,0.30566c-0.11055,-0.20877 -0.08083,-0.45178 -0.03043,-0.70011c-0.21191,-0.0549 -0.4257,-0.10809 -0.59238,-0.09545c-0.69614,0.05281 -1.3828,0.20831 -2.06004,0.37783c-4.34507,1.08755 -6.75085,3.16515 -11.03332,0.33138c-3.96204,-2.62173 -3.56554,-9.88366 -3.80304,-14.02952c-0.09207,-1.60725 -0.62792,-3.33974 -0.01799,-4.8296c0.4599,-1.1234 1.42337,-1.96677 2.13506,-2.95015c4.30034,-3.58362 7.86131,-4.84742 13.44206,-4.47262c1.58445,0.10641 4.02331,-0.42422 5.45483,0.42655c2.40276,1.42801 3.40776,3.46887 4.96385,5.60947c1.83083,2.51853 2.5556,4.40144 2.23914,7.5635c-0.06864,0.41184 -0.13728,0.82368 -0.20592,1.23552l-0.9916,-0.21823c0.06413,0.12335 0.11481,0.24477 0.15371,0.36388c2.80068,5.80496 4.77684,14.01923 1.01981,19.91787c-1.58187,2.48359 -3.80535,3.89374 -6.20323,5.49233c-1.98974,1.32649 -3.73589,3.03715 -6.03448,3.8625c-5.17172,1.857 -10.55223,1.49946 -15.94427,1.49946l-0.26486,-0.75922c0,0 -1.74078,1.79435 -3.53512,0.05356c-0.77229,-0.74924 -0.88971,-1.5084 -0.77291,-2.13015c-1.93509,-2.56531 0.05793,-4.64245 1.0151,-7.51396z" fill="#000000" fill-rule="nonzero" stroke="none" stroke-width="0.5" stroke-linecap="butt" stroke-linejoin="miter"/><path d="M280.22236,169.214c0.43502,-0.08024 0.73396,-0.23085 0.73396,-0.23085c7.16275,-3.58138 22.36844,-3.7308 21.24383,-14.96763c-0.96112,-5.76674 -9.07792,-2.65223 -12.42367,-1.53698c-0.76155,0.25385 -2.88784,0.97599 -3.68118,0.71154c-0.35998,-0.11999 0.97443,0.06088 0.99184,-0.31817c0.05156,-1.12212 -1.58455,-1.76642 -1.79338,-2.87013c-0.25023,-1.3225 0.0582,-2.7131 -0.06376,-4.05352c-0.23474,-2.57996 -1.10121,-5.87097 -0.4717,-8.44568c0.07538,-0.30832 0.22372,0.5941 0.33571,0.89109c2.09227,-1.74355 4.54649,-3.72061 7.44997,-3.87853c0.75057,-0.04083 1.45019,0.47158 2.20022,0.52128c1.34766,0.0893 4.01048,-0.40228 5.26653,0.40095c0.20454,0.1308 -0.74123,-0.11706 -0.719,0.12471c0.25794,2.80553 5.30844,4.33442 3.82861,7.30619c-0.05187,0.3112 -0.10235,0.62399 -0.15421,0.93519c-1.59062,1.17338 -0.63923,3.0733 -0.63923,3.0733c2.29383,4.58766 4.33309,11.06045 1.22969,15.9437c-1.05978,1.66758 -2.91521,2.50992 -4.51981,3.57965c-1.82499,1.21666 -3.4148,2.8111 -5.51566,3.55561c-4.08664,1.44824 -8.7369,1.01687 -13.02217,0.96789l-0.7545,-0.33914c-0.05533,-0.04427 -0.11241,-0.1045 -0.16973,-0.1725c0.22956,-0.38029 0.47808,-0.8249 0.64762,-1.19797z" data-paper-data="{&quot;noHover&quot;:false,&quot;origItem&quot;:[&quot;Path&quot;,{&quot;applyMatrix&quot;:true,&quot;segments&quot;:[[[559.20814,340.74293],[0.45912,-0.76057],[0.11463,0.136]],[[559.5467,341.0873],[-0.11066,-0.08853],[0,0]],[[561.0526,341.76348],[0,0],[8.57054,0.09797]],[[587.03547,339.81167],[-8.17329,2.89649],[4.20172,-1.48902]],[[598.02955,332.71044],[-3.64998,2.43332],[3.20919,-2.13946]],[[607.03876,325.57415],[-2.11956,3.33516],[6.2068,-9.76651]],[[604.56772,293.80438],[4.58767,9.17533],[0,0]],[[605.85588,287.67145],[-3.18124,2.34677],[0.10373,-0.6224]],[[606.16708,285.80423],[-0.10373,0.6224],[2.95966,-5.94353]],[[598.54607,271.21691],[0.51587,5.61106],[-0.04446,-0.48354]],[[599.98106,270.96621],[0.40908,0.2616],[-2.51209,-1.60646]],[[589.47505,270.17195],[2.69532,0.1786],[-1.50007,-0.0994]],[[585.08692,269.13029],[1.50114,-0.08165],[-5.80696,0.31584]],[[570.23311,276.87662],[4.18454,-3.48711],[-0.22399,-0.59397]],[[569.56115,275.09471],[0.15077,-0.61664],[-1.25902,5.14941]],[[570.53224,291.9657],[-0.46948,-5.15993],[0.24392,2.68084]],[[570.68064,300.04008],[-0.50045,-2.64499],[0.41766,2.20743]],[[574.27428,305.74189],[0.10311,-2.24423],[-0.03483,0.7581]],[[572.09084,306.38687],[-0.71996,-0.23999],[1.58667,0.52889]],[[579.4536,304.94584],[-1.52309,0.5077],[6.69149,-2.2305]],[[604.49951,308.04359],[-1.92224,-11.53347],[2.24921,22.47366]],[[561.85514,338.04811],[14.32549,-7.16275],[0,0]],[[560.38537,338.50847],[0.87004,-0.16048],[-0.33908,0.74613]]],&quot;closed&quot;:true}]}" fill="#ffab19" fill-rule="nonzero" stroke="none" stroke-width="0.5" stroke-linecap="butt" stroke-linejoin="miter"/><path d="M290.56681,165.08271l-0.82368,3.29472" fill="none" fill-rule="nonzero" stroke="#000000" stroke-width="0.5" stroke-linecap="round" stroke-linejoin="miter"/><path d="M294.68521,164.67087l-0.41184,3.70656" fill="none" fill-rule="nonzero" stroke="#000000" stroke-width="0.5" stroke-linecap="round" stroke-linejoin="miter"/><path d="M302.92201,161.37615l-2.88288,-0.41184l4.1184,-3.29472" fill="none" fill-rule="nonzero" stroke="#000000" stroke-width="0.5" stroke-linecap="round" stroke-linejoin="miter"/><path d="M191.31341,160.55247l3.29472,8.64864" fill="none" fill-rule="nonzero" stroke="#000000" stroke-width="0.5" stroke-linecap="round" stroke-linejoin="miter"/><path d="M194.19629,163.84719l-4.53024,2.0592l-4.94208,4.1184l5.35392,4.53024l3.29472,-0.82368l5.35392,-3.70656l1.64736,-4.1184" fill="none" fill-rule="nonzero" stroke="#000000" stroke-width="0.5" stroke-linecap="round" stroke-linejoin="miter"/></g></g></svg>